<svg width="560" height="88" viewBox="0 0 560 88" fill="none" xmlns="http://www.w3.org/2000/svg">
<path d="M41.8604 58.1485H70.9435L88.0261 8.53857H21.3185L38.4011 29.0742H8.54077V79.4611H34.5234L41.8604 58.1485Z" stroke="white" stroke-width="17.0774" stroke-miterlimit="10"/>
<path d="M41.8604 58.1485H70.9435L88.0261 8.53857H21.3185L38.4011 29.0742H8.54077V79.4611H34.5234L41.8604 58.1485Z" stroke="url(#paint0_linear_1_681)" stroke-width="17.0774" stroke-miterlimit="10"/>
<path d="M41.8604 58.1485H70.9435L88.0261 8.53857H21.3185L38.4011 29.0742H8.54077V79.4611H34.5234L41.8604 58.1485Z" stroke="url(#paint1_linear_1_681)" stroke-width="17.0774" stroke-miterlimit="10"/>
<path fill-rule="evenodd" clip-rule="evenodd" d="M10.392 3.41553H95.2106L74.5998 63.2719H45.517L38.18 84.5846H3.4165V23.9511H27.4746L10.392 3.41553ZM32.2461 13.662L49.3287 34.1976H13.6661V74.3381H30.8678L38.2048 53.0255H67.2882L80.8426 13.662H32.2461Z" fill="url(#paint2_linear_1_681)"/>
<path fill-rule="evenodd" clip-rule="evenodd" d="M10.392 3.41553H95.2106L74.5998 63.2719H45.517L38.18 84.5846H3.4165V23.9511H27.4746L10.392 3.41553ZM32.2461 13.662L49.3287 34.1976H13.6661V74.3381H30.8678L38.2048 53.0255H67.2882L80.8426 13.662H32.2461Z" fill="url(#paint3_linear_1_681)"/>
<path opacity="0.6" fill-rule="evenodd" clip-rule="evenodd" d="M3.10732 0H100L77.037 66.6874H47.9544L40.6174 88H0V20.5356H20.1899L3.10732 0ZM39.5308 17.0774L56.6134 37.613H17.0826V70.9226H28.4305L35.7674 49.6099H64.851L76.0532 17.0774H39.5308Z" fill="white"/>
<g style="mix-blend-mode:overlay" opacity="0.5">
<path fill-rule="evenodd" clip-rule="evenodd" d="M3.10732 0H100L77.037 66.6874H47.9544L40.6174 88H0V20.5356H20.1899L3.10732 0ZM39.5308 17.0774L56.6134 37.613H17.0826V70.9226H28.4305L35.7674 49.6099H64.851L76.0532 17.0774H39.5308Z" fill="#0066FF"/>
</g>
<g style="mix-blend-mode:plus-darker" opacity="0.04">
<path fill-rule="evenodd" clip-rule="evenodd" d="M3.10732 0H100L77.037 66.6874H47.9544L40.6174 88H0V20.5356H20.1899L3.10732 0ZM39.5308 17.0774L56.6134 37.613H17.0826V70.9226H28.4305L35.7674 49.6099H64.851L76.0532 17.0774H39.5308Z" fill="#0066FF"/>
</g>
<path d="M152 69.2778V18.7222H172.758C177.227 18.7222 181.047 19.4444 184.219 20.8889C187.438 22.3333 189.913 24.4037 191.643 27.1C193.372 29.7963 194.237 32.9981 194.237 36.7056C194.237 40.413 193.372 43.6148 191.643 46.3111C189.913 49.0074 187.438 51.0778 184.219 52.5222C181.047 53.9667 177.227 54.6889 172.758 54.6889H157.19L161.37 50.2833V69.2778H152ZM161.37 51.2944L157.19 46.7444H172.326C176.458 46.7444 179.558 45.8778 181.624 44.1444C183.738 42.363 184.795 39.8833 184.795 36.7056C184.795 33.4796 183.738 31 181.624 29.2667C179.558 27.5333 176.458 26.6667 172.326 26.6667H157.19L161.37 22.0444V51.2944Z" fill="white"/>
<path d="M218.01 69.2778V18.7222H238.768C243.237 18.7222 247.057 19.4444 250.228 20.8889C253.448 22.3333 255.923 24.4037 257.652 27.1C259.382 29.7963 260.247 32.9981 260.247 36.7056C260.247 40.413 259.382 43.6148 257.652 46.3111C255.923 48.9593 253.448 51.0056 250.228 52.45C247.057 53.8463 243.237 54.5444 238.768 54.5444H223.199L227.38 50.2833V69.2778H218.01ZM251.021 69.2778L238.264 50.9333H248.282L261.112 69.2778H251.021ZM227.38 51.2944L223.199 46.8167H238.336C242.468 46.8167 245.567 45.9259 247.634 44.1444C249.748 42.363 250.805 39.8833 250.805 36.7056C250.805 33.4796 249.748 31 247.634 29.2667C245.567 27.5333 242.468 26.6667 238.336 26.6667H223.199L227.38 22.0444V51.2944Z" fill="white"/>
<path d="M285.146 69.2778V18.7222H294.516V69.2778H285.146Z" fill="white"/>
<path d="M322.578 69.2778V18.7222H330.291L352.346 55.6278H348.31L370.005 18.7222H377.718L377.79 69.2778H368.924L368.852 32.6611H370.726L352.274 63.5H348.094L329.354 32.6611H331.516V69.2778H322.578Z" fill="white"/>
<path d="M405.833 69.2778V18.7222H415.203V69.2778H405.833Z" fill="white"/>
<path d="M443.266 69.2778V18.7222H450.978L482.62 57.65H478.8V18.7222H488.098V69.2778H480.386L448.744 30.35H452.564V69.2778H443.266Z" fill="white"/>
<path d="M539.602 70C535.662 70 532.034 69.3741 528.718 68.1222C525.451 66.8222 522.592 65.0167 520.141 62.7056C517.691 60.3463 515.793 57.5778 514.447 54.4C513.102 51.2222 512.429 47.7556 512.429 44C512.429 40.2444 513.102 36.7778 514.447 33.6C515.793 30.4222 517.691 27.6778 520.141 25.3667C522.64 23.0074 525.547 21.2019 528.863 19.95C532.178 18.65 535.806 18 539.746 18C544.023 18 547.867 18.6981 551.279 20.0944C554.738 21.4907 557.645 23.537 560 26.2333L554.09 32.0111C552.12 30.037 549.981 28.5926 547.675 27.6778C545.416 26.7148 542.918 26.2333 540.179 26.2333C537.536 26.2333 535.085 26.6667 532.827 27.5333C530.568 28.4 528.622 29.6278 526.989 31.2167C525.355 32.8056 524.081 34.6833 523.169 36.85C522.304 39.0167 521.871 41.4 521.871 44C521.871 46.5518 522.304 48.9111 523.169 51.0778C524.081 53.2444 525.355 55.1463 526.989 56.7833C528.622 58.3722 530.544 59.6 532.755 60.4667C534.965 61.3333 537.416 61.7667 540.107 61.7667C542.605 61.7667 545.008 61.3815 547.314 60.6111C549.669 59.7926 551.903 58.4444 554.018 56.5667L559.351 63.5722C556.708 65.6907 553.633 67.3037 550.125 68.4111C546.666 69.4704 543.158 70 539.602 70ZM550.486 62.3444V43.4222H559.351V63.5722L550.486 62.3444Z" fill="white"/>
<defs>
<linearGradient id="paint0_linear_1_681" x1="8.54077" y1="43.9999" x2="88.0261" y2="43.9999" gradientUnits="userSpaceOnUse">
<stop stop-color="#C3C3C3"/>
<stop offset="1" stop-color="white"/>
</linearGradient>
<linearGradient id="paint1_linear_1_681" x1="48.2834" y1="8.53857" x2="48.2834" y2="79.4611" gradientUnits="userSpaceOnUse">
<stop offset="0.166667" stop-color="white"/>
<stop offset="0.494792" stop-color="#D2D2D2"/>
<stop offset="0.734375" stop-color="#262626"/>
<stop offset="0.927083" stop-color="#E4E4E4"/>
</linearGradient>
<linearGradient id="paint2_linear_1_681" x1="48.2839" y1="79.4613" x2="48.2839" y2="8.53875" gradientUnits="userSpaceOnUse">
<stop stop-color="#A1A1A1"/>
<stop offset="1" stop-color="#F5F5F5"/>
</linearGradient>
<linearGradient id="paint3_linear_1_681" x1="49.3136" y1="3.41553" x2="49.3136" y2="84.5846" gradientUnits="userSpaceOnUse">
<stop stop-color="#ECECEC"/>
<stop offset="0.484375" stop-color="#BBBBBB"/>
<stop offset="0.484475" stop-color="#3E3E3E"/>
<stop offset="1" stop-color="#969696"/>
</linearGradient>
</defs>
</svg>
