<svg id="ekyzU6LeCRI1" xmlns="http://www.w3.org/2000/svg" xmlns:xlink="http://www.w3.org/1999/xlink" viewBox="0 0 300 300" shape-rendering="geometricPrecision" text-rendering="geometricPrecision" project-id="37de0671a4dc4e1cbd7012336741b458" export-id="481f9ed6bd7e4f6cae8c3239a3d2b51c" cached="false"><path d="M60.12285,250C54.53215,250,30,185.431843,30,150s24.53215-100,30.12285-100h179.7543C245.46785,50,270,113.075612,270,150s-24.53215,100-30.12285,100h-179.7543Z" transform="matrix(1.21 0 0 1.21-31.5-31.5)" fill="rgba(0,0,0,0)" stroke="#def141" stroke-width="7" stroke-linejoin="round"/><line x1="-105" y1="-0.25" x2="105" y2="0.25" transform="translate(150 245.25)" fill="none" stroke="#def141" stroke-width="15" stroke-linecap="round" stroke-linejoin="round"/><line x1="-105" y1="-0.25" x2="105" y2="0.25" transform="translate(150 55.25)" fill="none" stroke="#def141" stroke-width="15" stroke-linecap="round" stroke-linejoin="round"/><ellipse rx="32.5" ry="32.5" transform="translate(112.5 113.762404)" fill="none" stroke="#def141" stroke-width="15"/><line x1="0" y1="-54.447064" x2="0" y2="56.552936" transform="matrix(.956305 0.292372-.292372 0.956305 187.840257 148.947064)" fill="none" stroke="#def141" stroke-width="15" stroke-linecap="round"/><line x1="0" y1="-54.447064" x2="0" y2="56.552936" transform="matrix(.956305 0.292372-.292372 0.956305 227.844478 148.947064)" fill="none" stroke="#def141" stroke-width="15" stroke-linecap="round"/><line x1="0" y1="-36.39064" x2="0" y2="36.39064" transform="translate(63 180.655449)" fill="none" stroke="#def141" stroke-width="15" stroke-linecap="round" stroke-linejoin="round"/></svg>
